<svg xmlns="http://www.w3.org/2000/svg" width="1200" height="675" viewBox="0 0 1200 675" fill="none">
<defs>
<linearGradient id="bg" x1="0" y1="0" x2="1200" y2="675" gradientUnits="userSpaceOnUse">
<stop stop-color="#071411"/>
<stop offset="1" stop-color="#0d261f"/>
</linearGradient>
<linearGradient id="ram" x1="180" y1="120" x2="1020" y2="520" gradientUnits="userSpaceOnUse">
<stop stop-color="#12372d"/>
<stop offset="1" stop-color="#18513f"/>
</linearGradient>
</defs>
<rect width="1200" height="675" rx="32" fill="url(#bg)"/>
<g opacity="0.18" stroke="#20e391">
<path d="M0 96H1200"/><path d="M0 192H1200"/><path d="M0 288H1200"/><path d="M0 384H1200"/><path d="M0 480H1200"/><path d="M0 576H1200"/>
<path d="M150 0V675"/><path d="M300 0V675"/><path d="M450 0V675"/><path d="M600 0V675"/><path d="M750 0V675"/><path d="M900 0V675"/><path d="M1050 0V675"/>
</g>
<rect x="120" y="122" width="960" height="430" rx="30" fill="url(#ram)" stroke="#20e391" stroke-opacity="0.3"/>
<rect x="185" y="236" width="430" height="110" rx="18" fill="#0a1f1a"/>
<rect x="185" y="372" width="430" height="110" rx="18" fill="#0a1f1a"/>
<g fill="#20e391" fill-opacity="0.7">
<rect x="220" y="350" width="16" height="44" rx="6"/><rect x="264" y="350" width="16" height="44" rx="6"/><rect x="308" y="350" width="16" height="44" rx="6"/><rect x="352" y="350" width="16" height="44" rx="6"/><rect x="396" y="350" width="16" height="44" rx="6"/><rect x="440" y="350" width="16" height="44" rx="6"/><rect x="484" y="350" width="16" height="44" rx="6"/><rect x="528" y="350" width="16" height="44" rx="6"/>
<rect x="220" y="486" width="16" height="44" rx="6"/><rect x="264" y="486" width="16" height="44" rx="6"/><rect x="308" y="486" width="16" height="44" rx="6"/><rect x="352" y="486" width="16" height="44" rx="6"/><rect x="396" y="486" width="16" height="44" rx="6"/><rect x="440" y="486" width="16" height="44" rx="6"/><rect x="484" y="486" width="16" height="44" rx="6"/><rect x="528" y="486" width="16" height="44" rx="6"/>
</g>
<rect x="680" y="210" width="300" height="90" rx="18" fill="#0a1f1a" stroke="#2df4a2" stroke-opacity="0.2"/>
<rect x="680" y="320" width="300" height="90" rx="18" fill="#0a1f1a" stroke="#2df4a2" stroke-opacity="0.2"/>
<rect x="680" y="430" width="300" height="90" rx="18" fill="#0a1f1a" stroke="#2df4a2" stroke-opacity="0.2"/>
<text x="712" y="246" fill="#9be8c2" font-family="Arial, sans-serif" font-size="20" font-weight="700">DESEMPENHO</text>
<text x="712" y="278" fill="#ffffff" font-family="Arial, sans-serif" font-size="28" font-weight="800">G.SKILL Trident Z5 Neo</text>
<text x="712" y="356" fill="#9be8c2" font-family="Arial, sans-serif" font-size="20" font-weight="700">EQUILÍBRIO</text>
<text x="712" y="388" fill="#ffffff" font-family="Arial, sans-serif" font-size="28" font-weight="800">Corsair Vengeance RGB Pro</text>
<text x="712" y="466" fill="#9be8c2" font-family="Arial, sans-serif" font-size="20" font-weight="700">CUSTO-BENEFÍCIO</text>
<text x="712" y="498" fill="#ffffff" font-family="Arial, sans-serif" font-size="28" font-weight="800">Kingston Fury Beast</text>
<text x="120" y="84" fill="#9be8c2" font-family="Arial, sans-serif" font-size="30" font-weight="700">Upgrade e desempenho</text>
<text x="120" y="612" fill="#ffffff" font-family="Arial, sans-serif" font-size="56" font-weight="800">Melhores memórias RAM</text>
<text x="120" y="650" fill="#b9d4cb" font-family="Arial, sans-serif" font-size="28" font-weight="500">DDR5 e DDR4 para custo-benefício, overclock e plataforma nova</text>
</svg>